<svg width="20" height="34" viewBox="0 0 20 34" fill="none" xmlns="http://www.w3.org/2000/svg">
<path d="M1 6.68924V27.3115C1 29.3028 1 30.2979 1.39238 31.0585C1.73752 31.7275 2.28785 32.272 2.96523 32.6128C3.73456 33 4.74219 33 6.75444 33H13.2456C15.2578 33 16.264 33 17.0333 32.6128C17.7107 32.272 18.2629 31.7275 18.608 31.0585C19 30.2986 19 29.3049 19 27.3175V6.6834C19 4.69599 19 3.7008 18.608 2.94097C18.2629 2.27195 17.7107 1.72842 17.0333 1.38753C16.2632 1 15.2565 1 13.2404 1H6.76035C4.74416 1 3.73532 1 2.96523 1.38753C2.28785 1.72842 1.73752 2.27195 1.39238 2.94097C1 3.70155 1 4.69794 1 6.68924Z" stroke="#757575" stroke-width="2" stroke-linecap="round" stroke-linejoin="round"/>
</svg>
