<svg width="23" height="22" viewBox="0 0 23 22" fill="none" xmlns="http://www.w3.org/2000/svg">
<path d="M6.71316 5.98366H5.24998C3.69469 5.98366 2.9177 5.98366 2.36453 6.30096C1.8791 6.5794 1.50595 7.01924 1.3111 7.54384C1.0892 8.14127 1.21693 8.90765 1.47229 10.4399L1.47283 10.4427L2.58977 17.1444C2.77924 18.2812 2.8746 18.8499 3.15826 19.2764C3.4083 19.6525 3.7593 19.9497 4.1713 20.1345C4.63868 20.3442 5.21471 20.3443 6.36723 20.3443H16.6332C17.7857 20.3443 18.3613 20.3442 18.8287 20.1345C19.2407 19.9497 19.592 19.6525 19.842 19.2764C20.1257 18.8499 20.2205 18.2812 20.41 17.1444L21.527 10.4427L21.528 10.4381C21.7832 8.90705 21.9109 8.14104 21.6891 7.54384C21.4942 7.01924 21.122 6.5794 20.6365 6.30096C20.0834 5.98366 19.3051 5.98366 17.7498 5.98366H16.2869M6.71316 5.98366H16.2869M6.71316 5.98366C6.71316 3.33993 8.85632 1.19677 11.5 1.19677C14.1438 1.19677 16.2869 3.33993 16.2869 5.98366" stroke="black" stroke-width="2.35" stroke-linecap="round" stroke-linejoin="round"/>
</svg>
