<svg width="64" height="45" viewBox="0 0 64 45" fill="none" xmlns="http://www.w3.org/2000/svg">
<path d="M9.55776 16.0002L19.1153 30.5001H0.000252783L9.55776 16.0002Z" fill="#427F85"/>
<path d="M9.55727 45L-0.000237098 30.5001L19.1148 30.5001L9.55727 45Z" fill="#427F85"/>
<path d="M20.6745 0L30.232 14.4999H11.117L20.6745 0Z" fill="#427F85"/>
<path d="M20.6745 28.9999L11.117 14.5L30.232 14.5L20.6745 28.9999Z" fill="#427F85"/>
<path d="M31.7908 15.7887L41.3483 30.2887H22.2333L31.7908 15.7887Z" fill="#427F85"/>
<path d="M31.7908 44.7888L22.2333 30.2888L41.3483 30.2888L31.7908 44.7888Z" fill="#427F85"/>
<path d="M42.9075 0L52.4651 14.4999H33.35L42.9075 0Z" fill="#427F85"/>
<path d="M42.9075 28.9999L33.35 14.5L52.4651 14.5L42.9075 28.9999Z" fill="#427F85"/>
<path d="M54.0238 15.7887L63.5813 30.2887H44.4663L54.0238 15.7887Z" fill="#427F85"/>
<path d="M54.0238 44.7888L44.4663 30.2888L63.5813 30.2888L54.0238 44.7888Z" fill="#427F85"/>
</svg>
