<svg width="19" height="24" viewBox="0 0 19 24" fill="none" xmlns="http://www.w3.org/2000/svg">
<path d="M1.18731 9.40853C1.18731 15.1701 6.22768 19.9347 8.45868 21.7615C8.77797 22.0229 8.93953 22.1552 9.17774 22.2222C9.36323 22.2745 9.63622 22.2745 9.82171 22.2222C10.0604 22.1551 10.2208 22.0241 10.5413 21.7616C12.7723 19.9349 17.8124 15.1707 17.8124 9.40906C17.8124 7.22865 16.9367 5.13729 15.3777 3.59551C13.8188 2.05373 11.7046 1.18756 9.5 1.18756C7.29536 1.18756 5.18093 2.05386 3.62201 3.59564C2.0631 5.13742 1.18731 7.22813 1.18731 9.40853Z" stroke="#427F85" stroke-width="2.35" stroke-linecap="round" stroke-linejoin="round"/>
<path d="M7.12488 8.31264C7.12488 9.62433 8.18821 10.6877 9.4999 10.6877C10.8116 10.6877 11.8749 9.62433 11.8749 8.31264C11.8749 7.00095 10.8116 5.93761 9.4999 5.93761C8.18821 5.93761 7.12488 7.00095 7.12488 8.31264Z" stroke="#427F85" stroke-width="2.35" stroke-linecap="round" stroke-linejoin="round"/>
</svg>
