<svg width="249" height="270" viewBox="0 0 249 270" fill="none" xmlns="http://www.w3.org/2000/svg">
<path d="M157.815 171.72C157.909 171.625 158.003 171.539 158.097 171.445C158.191 171.35 158.285 171.256 158.371 171.161C175.229 154.186 182.678 142.846 181.699 141.871L237.917 197.842C252.633 212.493 252.686 236.306 238.035 251.03C223.383 265.746 199.562 265.799 184.846 251.147L128.628 195.177C129.607 196.152 140.914 188.652 157.815 171.72Z" fill="#ECF9FF"/>
<path style="mix-blend-mode:multiply" d="M128.628 195.177L184.846 251.148C199.562 265.799 223.375 265.746 238.026 251.03C242.636 246.4 245.787 240.873 247.488 235.014C251.197 222.242 248.003 207.891 237.908 197.85L181.69 141.88C182.369 142.555 178.91 148.349 170.959 157.616C167.581 161.549 163.391 166.11 158.362 171.17L157.806 171.728C149.356 180.199 142.306 186.3 137.24 190.169C132.174 194.038 129.109 195.664 128.619 195.177L128.628 195.177Z" fill="url(#paint0_linear_59_1441)"/>
<path d="M181.699 141.871C182.678 142.846 175.229 154.186 158.371 171.161C158.277 171.256 158.191 171.342 158.097 171.436C158.003 171.531 157.909 171.625 157.815 171.711C140.914 188.644 129.607 196.143 128.628 195.168C127.648 194.193 135.175 182.733 152.23 165.594C169.293 148.456 180.711 140.879 181.699 141.862L181.699 141.871Z" fill="url(#paint1_linear_59_1441)"/>
<path style="mix-blend-mode:multiply" d="M181.699 141.871C182.678 142.846 175.229 154.186 158.371 171.161C158.277 171.256 158.191 171.342 158.097 171.436C158.003 171.531 157.909 171.625 157.815 171.711C140.914 188.644 129.607 196.143 128.628 195.168C127.648 194.193 135.175 182.733 152.23 165.594C169.293 148.456 180.711 140.879 181.699 141.862L181.699 141.871Z" fill="url(#paint2_linear_59_1441)"/>
<path style="mix-blend-mode:color-dodge" d="M181.699 141.871C182.378 142.547 178.919 148.34 170.967 157.607L170.593 158.894L226.227 214.283L225.657 220.053C225.657 220.053 233.633 237.505 247.506 235.014C251.215 222.242 248.02 207.891 237.926 197.85L181.708 141.879L181.699 141.871Z" fill="url(#paint3_linear_59_1441)"/>
<path d="M90.3617 179.258C90.2671 179.163 90.1812 179.078 90.0782 178.984C89.9837 178.89 89.8977 178.796 89.8032 178.702C72.8707 161.801 65.371 150.494 66.3461 149.515L10.9569 205.149C-3.69432 219.865 -3.64179 243.677 11.0743 258.337C25.7903 272.988 49.603 272.936 64.2628 258.22L119.652 202.586C118.677 203.565 107.337 196.115 90.3617 179.258Z" fill="#427F85"/>
<path style="mix-blend-mode:multiply" d="M119.643 202.586L64.2542 258.22C49.603 272.936 25.7902 272.988 11.0742 258.337C6.44377 253.727 3.26857 248.214 1.54128 242.363C-2.22422 229.608 0.907139 215.243 10.9569 205.157L66.346 149.523C65.6618 150.202 69.1547 155.98 77.147 165.212C80.5416 169.139 84.7518 173.672 89.8032 178.71L90.3616 179.266C98.8493 187.699 105.926 193.77 111.009 197.616C116.092 201.462 119.164 203.075 119.652 202.586L119.643 202.586Z" fill="url(#paint4_linear_59_1441)"/>
<path d="M66.2063 148.212C65.2056 149.217 72.9031 160.832 90.2996 178.195C90.3941 178.289 90.4886 178.383 90.5831 178.477C90.6776 178.571 90.7721 178.665 90.8666 178.759C108.306 196.079 119.946 203.725 120.955 202.72C121.965 201.706 114.181 189.98 96.5787 172.455C78.9762 154.93 67.2156 147.198 66.2063 148.212Z" fill="url(#paint5_radial_59_1441)"/>
<path style="mix-blend-mode:multiply" d="M66.2063 148.212C65.2056 149.217 72.9031 160.832 90.2996 178.195C90.3941 178.289 90.4886 178.383 90.5831 178.477C90.6776 178.571 90.7721 178.665 90.8666 178.759C108.306 196.079 119.946 203.725 120.955 202.72C121.965 201.706 114.181 189.98 96.5787 172.455C78.9762 154.93 67.2156 147.198 66.2063 148.212Z" fill="url(#paint6_linear_59_1441)"/>
<path style="mix-blend-mode:color-dodge" d="M66.3463 149.523C65.662 150.202 69.1549 155.98 77.1472 165.212L77.5358 166.497L22.7368 221.538L23.3324 227.305C23.3324 227.305 15.4334 244.792 1.55009 242.371C-2.21541 229.616 0.915946 215.251 10.9657 205.166L66.3549 149.532L66.3463 149.523Z" fill="url(#paint7_linear_59_1441)"/>
<path d="M120.955 202.72L115.558 208.141C114.558 209.146 102.917 201.5 85.4779 184.18L84.9023 183.607C67.5058 166.244 59.8084 154.638 60.8091 153.624L66.206 148.203C65.2053 149.208 72.9028 160.824 90.2992 178.186L90.8748 178.759C99.5944 187.415 106.86 193.656 112.08 197.605C117.301 201.554 120.459 203.21 120.955 202.712L120.955 202.72Z" fill="#427F85"/>
<path style="mix-blend-mode:multiply" d="M120.955 202.72L115.558 208.141C114.549 209.155 102.909 201.508 85.4782 184.189L84.9026 183.616C79.602 178.33 75.2027 173.565 71.6792 169.475C63.6182 160.158 60.108 154.329 60.8093 153.633L66.2063 148.212C65.5135 148.908 69.0237 154.738 77.0761 164.063C80.5997 168.153 84.999 172.909 90.2995 178.203L90.8751 178.776C99.5862 187.432 106.86 193.673 112.081 197.622C117.301 201.571 120.459 203.227 120.955 202.729L120.955 202.72Z" fill="url(#paint8_linear_59_1441)"/>
<path d="M204.665 53.2466L201.726 54.1103L200.854 51.1634L195.731 52.6663L196.595 55.6131L193.648 56.4768L195.151 61.6081L198.098 60.7444L198.962 63.6912L204.093 62.1798L203.229 59.2415L206.176 58.3693L204.665 53.2466Z" fill="#427F85"/>
<path d="M111.515 100.546C119.789 97.6221 124.7 93.2139 125.757 90.3657L124.53 89.9141C123.737 92.0674 119.495 96.3456 111.084 99.3214C102.99 102.185 97.6254 106.732 96.5091 109.743L97.7359 110.194C98.5199 108.075 102.959 103.574 111.524 100.546L111.515 100.546Z" fill="#427F85"/>
<path d="M112.339 100.982C112.074 101.085 111.791 101.188 111.517 101.283C111.372 101.335 111.235 101.387 111.097 101.439C111.536 102.235 111.924 103.014 112.277 103.768L109.154 102.609L107.459 103.418L113.026 105.48C113.276 106.08 113.492 106.662 113.682 107.228L105.918 104.356L104.48 105.259L114.191 108.855C114.355 109.429 114.485 109.977 114.598 110.509L103.248 106.299L101.964 107.253L114.867 112.034C114.937 112.591 114.989 113.114 115.007 113.585L100.852 108.336L99.9888 109.452L114.985 115.008C114.935 115.6 114.833 116.088 114.697 116.466L115.923 116.917C116.929 114.198 116.204 108.131 112.348 100.973L112.339 100.982Z" fill="#427F85"/>
<path d="M109.85 99.187C110.098 99.0921 110.355 99.0058 110.603 98.911C110.766 98.8506 110.929 98.7988 111.083 98.7299C110.618 97.8566 110.205 97.0089 109.834 96.1868L113.017 97.3627L114.713 96.5532L109.128 94.4826C108.895 93.883 108.688 93.3092 108.507 92.7524L116.254 95.624L117.692 94.7294L108.023 91.1419C107.876 90.5679 107.746 90.0196 107.642 89.497L118.924 93.6809L120.207 92.7266L107.39 87.9717C107.321 87.4147 107.277 86.9005 107.258 86.4205L121.319 91.6269L122.183 90.5107L107.29 84.9975C107.34 84.4402 107.433 83.9771 107.569 83.6253L106.343 83.1737C105.295 85.9962 106.208 92.2774 109.841 99.187L109.85 99.187Z" fill="#427F85"/>
<path d="M162.563 112.906C161.967 114.93 159.844 116.092 157.82 115.496C155.795 114.901 154.633 112.778 155.229 110.753C155.824 108.72 157.948 107.567 159.972 108.163C162.005 108.758 163.158 110.881 162.563 112.906Z" fill="#427F85"/>
<path d="M174.963 111.404C174.648 112.476 173.518 113.096 172.446 112.781C171.365 112.466 170.745 111.336 171.06 110.264C171.375 109.183 172.505 108.564 173.586 108.878C174.666 109.193 175.278 110.332 174.963 111.413L174.963 111.404Z" fill="#427F85"/>
<path d="M175.993 112.028C175.865 112.328 175.703 112.602 175.506 112.851C178.047 114.723 179.286 116.461 178.92 117.696C178.112 120.466 169.19 121.06 157.215 117.546C145.241 114.033 138.055 108.717 138.872 105.946C139.68 103.184 148.602 102.582 160.576 106.095C164.187 107.159 167.361 108.378 170.022 109.649C170.141 109.349 170.303 109.074 170.491 108.834C167.574 107.434 164.236 106.156 160.857 105.169C150.555 102.149 139.17 101.514 137.945 105.682C136.72 109.851 146.65 115.47 156.952 118.49C167.253 121.51 178.647 122.145 179.863 117.976C180.391 116.158 178.809 114.07 176.001 112.036L175.993 112.028Z" fill="#427F85"/>
<path d="M150.512 98.1114C151.609 97.8519 152.707 98.5181 152.967 99.6061C153.235 100.703 152.56 101.793 151.472 102.061C150.376 102.321 149.277 101.654 149.017 100.566C148.749 99.4783 149.424 98.371 150.512 98.1029L150.512 98.1114Z" fill="#427F85"/>
<path d="M150.544 96.9113C150.869 96.8592 151.186 96.867 151.495 96.9092C151.84 93.7797 152.735 91.8319 153.986 91.5291C156.788 90.8458 161.767 98.2666 164.709 110.398C167.658 122.529 166.641 131.412 163.831 132.095C161.029 132.77 156.058 125.349 153.108 113.227C152.217 109.56 151.696 106.201 151.466 103.27C151.149 103.313 150.832 103.314 150.523 103.272C150.762 106.503 151.335 110.025 152.166 113.452C154.701 123.887 159.84 134.067 164.064 133.038C168.279 132.017 168.186 120.608 165.651 110.182C163.116 99.7466 157.976 89.5659 153.753 90.5953C151.911 91.0365 150.896 93.4646 150.544 96.9113Z" fill="#427F85"/>
<path d="M151.225 125.926C150.452 125.113 150.475 123.827 151.287 123.054C152.1 122.281 153.386 122.304 154.167 123.116C154.941 123.929 154.909 125.223 154.097 125.997C153.284 126.77 151.998 126.738 151.225 125.934L151.225 125.926Z" fill="#427F85"/>
<path d="M150.163 126.511C149.966 126.254 149.802 125.98 149.69 125.681C146.804 126.947 144.67 127.149 143.785 126.225C141.792 124.138 145.735 116.114 154.768 107.497C163.8 98.8793 171.996 95.321 173.989 97.4082C175.974 99.4953 172.04 107.519 163.007 116.136C160.287 118.731 157.634 120.871 155.212 122.531C155.418 122.779 155.573 123.062 155.685 123.344C158.364 121.521 161.137 119.261 163.677 116.829C171.444 109.414 177.689 99.8773 174.691 96.7294C171.692 93.5816 161.864 99.3722 154.097 106.787C146.33 114.202 140.085 123.739 143.084 126.878C144.39 128.247 146.995 127.924 150.163 126.502L150.163 126.511Z" fill="#427F85"/>
<path d="M91.8657 150.058C91.206 150.205 90.7526 150.626 90.8306 150.995C90.9086 151.363 91.509 151.551 92.1687 151.403L98.9629 149.888C98.5078 149.521 98.0613 149.153 97.6147 148.777L91.8657 150.058Z" fill="#427F85"/>
<path d="M138.963 139.557L134.002 140.665C133.763 141.188 133.516 141.72 133.268 142.244L139.266 140.91C139.917 140.763 140.379 140.342 140.292 139.974C140.206 139.605 139.614 139.418 138.963 139.565L138.963 139.557Z" fill="#427F85"/>
<path d="M106.142 143.744L111.321 148.489L113.728 135.943L120.904 144.422L123.46 141.211L127.919 142.007L133.994 140.656C136.783 134.418 137.772 128.261 133.812 124.49C121.7 112.979 112.774 131.12 112.774 131.12C112.774 131.12 96.9739 118.494 90.9136 134.057C88.9276 139.153 92.4363 144.305 97.615 148.768L103.047 147.556L106.15 143.743L106.142 143.744Z" fill="#427F85"/>
<path d="M124.449 142.777L120.628 147.586L115.111 141.058L112.856 152.772L106.054 146.538L104.772 148.598L98.9548 149.897C107.585 156.795 119.605 161.783 119.605 161.783C119.605 161.783 128.37 152.163 133.26 142.244L127.203 143.594L124.449 142.777Z" fill="#427F85"/>
<path d="M99.3693 46.4326C99.144 45.3359 98.5762 44.4028 97.8032 43.7016C97.7344 43.6332 97.6657 43.5734 97.5884 43.5135C96.4377 42.5646 94.8853 42.1394 93.3087 42.4601L79.0773 45.4145C76.3184 45.9863 74.5328 48.7076 75.1047 51.4665C75.6765 54.2339 78.3977 56.0109 81.1566 55.4391L95.3881 52.4932C96.1164 52.3373 96.7758 52.0358 97.3492 51.6231C98.9325 50.4967 99.7939 48.5147 99.378 46.5098C99.378 46.5012 99.378 46.4926 99.3779 46.4755C99.3779 46.4669 99.3779 46.4498 99.3779 46.4412L99.3693 46.4326ZM76.1585 51.2498C75.708 49.0564 77.1176 46.9103 79.3024 46.4598L93.5339 43.5053C94.4421 43.3233 95.3339 43.4585 96.1062 43.8254C96.1577 43.851 96.2092 43.8766 96.2607 43.9108L86.1333 46.0161L87.5888 53.0247L80.9486 54.4023C78.7638 54.8529 76.6177 53.4518 76.1586 51.2584L76.1585 51.2498Z" fill="#427F85"/>
<path d="M98.2427 52.4526C98.1743 52.5042 98.0972 52.5473 98.0287 52.5903C97.8068 53.0279 97.5077 53.4229 97.1055 53.7495L87.1884 61.8033C86.5552 62.319 85.8014 62.5693 85.0472 62.5966C84.9957 62.5967 84.9443 62.5969 84.8929 62.597L91.9521 56.8639L90.1213 54.6135L82.0588 56.2857C81.8103 56.3377 81.5704 56.3639 81.3304 56.3816C81.1766 56.5877 81.0399 56.8023 80.9289 57.0254C80.1437 58.5444 80.2764 60.4385 81.411 61.8418C81.411 61.8418 81.4196 61.8503 81.4282 61.8589C81.4282 61.8589 81.4368 61.876 81.4454 61.8845C82.0643 62.6461 82.8883 63.15 83.7717 63.3881C83.8575 63.4136 83.9347 63.4306 84.0119 63.4475C85.2982 63.719 86.6863 63.4416 87.7729 62.5478L97.69 54.494C98.6655 53.7032 99.2202 52.5791 99.3291 51.413C99.0214 51.8166 98.6536 52.1774 98.2342 52.4698L98.2427 52.4526Z" fill="#427F85"/>
<path d="M184.935 23.2455L185.001 22.3453L185.668 21.7438L185.849 18.3146L195.183 9.91067L194.917 9.61124L195.404 9.16442L195.928 9.74615L196.373 9.34229L194.912 7.72542L195.4 7.2786L202.145 14.7642L201.658 15.2024L200.197 13.5855L199.752 13.9894L200.276 14.5711L199.789 15.018L199.471 14.6672L190.146 23.0797L186.974 23.0181L186.221 23.6884L185.313 23.6475L180.128 28.3135L179.759 27.9029L184.935 23.2369L184.935 23.2455ZM186.347 22.2995L189.879 22.3688L198.964 14.1797L195.613 10.4669L191.72 13.9728L194.092 16.5992L193.604 17.0374L191.233 14.4111L190.796 14.8063L191.931 16.0639L191.443 16.5022L190.309 15.2446L189.924 15.5883L192.295 18.2147L191.808 18.6615L189.436 16.0351L189.06 16.3788L190.194 17.6364L189.706 18.0832L188.572 16.8257L188.187 17.1694L190.559 19.7957L190.071 20.2425L187.699 17.6162L186.553 18.6474L186.364 22.2994L186.347 22.2995Z" fill="#427F85"/>
<path d="M144.093 67.4981C146.226 70.8022 150.514 71.8642 153.913 70.0309L145.819 57.4994C142.756 59.8463 141.96 64.1941 144.084 67.4896L144.093 67.4981ZM149.087 69.7158C147.38 69.3596 145.929 68.3684 144.992 66.9218C144.106 65.5523 143.785 63.8986 144.081 62.2778L144.922 62.4303C144.659 63.8367 144.945 65.2675 145.711 66.4573C146.519 67.7071 147.781 68.5701 149.256 68.8754L149.078 69.7158L149.087 69.7158Z" fill="#427F85"/>
<path d="M146.847 56.8457L154.94 69.3771C158.004 67.0303 158.8 62.6825 156.667 59.3785C154.534 56.0744 150.246 55.0124 146.847 56.8457Z" fill="#427F85"/>
<path d="M158.304 59.1264C160.413 62.9877 159.395 67.8159 155.92 70.498L155.717 71.5957C159.009 71.9313 162.056 69.6873 162.657 66.3772C163.242 63.17 161.332 60.0883 158.304 59.1264ZM161.757 66.2077C161.503 67.5884 160.742 68.7987 159.604 69.6413L159.166 69.0508C160.15 68.32 160.816 67.2727 161.037 66.0807C161.265 64.8287 160.988 63.5521 160.24 62.4909L160.839 62.0695C161.699 63.2848 162.019 64.7585 161.757 66.2077Z" fill="#427F85"/>
<path d="M62.2945 22.5302C62.0976 22.6592 61.9523 22.831 61.867 23.0369L59.2254 22.3912C59.2928 21.8339 59.1715 21.2513 58.8361 20.7549C58.32 19.976 57.4277 19.5922 56.5536 19.6798L55.4187 14.2563C55.5386 14.2132 55.6499 14.1529 55.7612 14.0841C56.5315 13.5681 56.7435 12.5218 56.2275 11.7515C55.7115 10.9812 54.6652 10.7692 53.8949 11.2852C53.1246 11.8012 52.9126 12.8475 53.4286 13.6178C53.7726 14.1314 54.3475 14.3958 54.9217 14.3603L56.0566 19.7838C55.8425 19.8528 55.6455 19.9476 55.4487 20.0766C54.9094 20.4378 54.5592 20.9786 54.4233 21.5618L49.7847 21.0063C49.767 20.7834 49.698 20.5607 49.5689 20.3638C49.1647 19.7476 48.3329 19.5865 47.7166 19.9908C47.1003 20.395 46.9393 21.2268 47.3435 21.8431C47.7563 22.4594 48.5796 22.6204 49.1959 22.2162C49.4612 22.0442 49.6407 21.7866 49.7258 21.5121L54.3644 22.0762C54.3569 22.5563 54.4866 23.036 54.7704 23.464C55.0198 23.832 55.3461 24.1142 55.7151 24.2934L54.113 28.5657C53.7185 28.4895 53.2987 28.5675 52.9392 28.7998C52.2202 29.2814 52.0252 30.2504 52.5068 30.9694C52.9884 31.6884 53.9575 31.8834 54.6765 31.4104C55.3955 30.9288 55.5905 29.9597 55.1174 29.2407C54.9798 29.0353 54.7994 28.8642 54.5935 28.7533L56.1955 24.4723C56.8474 24.6423 57.5586 24.5465 58.1578 24.1423C58.6285 23.8241 58.9533 23.3862 59.1151 22.8887L61.7567 23.5343C61.7572 23.7743 61.8177 24.0056 61.9639 24.2196C62.3337 24.776 63.0884 24.9286 63.6447 24.5588C64.2011 24.1889 64.3537 23.4343 63.9839 22.8779C63.6141 22.3216 62.8594 22.1689 62.3031 22.5387L62.2945 22.5302Z" fill="#427F85"/>
<path d="M126.452 40.5183L124.007 31.9432C124.316 31.8396 124.469 31.4707 124.366 31.0938C124.253 30.7083 123.91 30.4776 123.584 30.5726L118.633 31.9807C118.307 32.0758 118.137 32.4533 118.24 32.8388C118.344 33.2072 118.67 33.4379 118.987 33.3686L121.432 41.9437L118.644 52.4505C118.644 52.4505 119.188 54.3437 120.439 53.9895L133.768 50.1884L133.785 50.1884C135.087 49.8169 134.526 47.8466 134.526 47.8466L126.452 40.5097L126.452 40.5183ZM133.621 49.5887L125.693 42.3801L121.667 43.529L122.084 41.9509L119.371 32.4334L123.192 31.3449L125.904 40.8624L133.935 48.1651C133.988 48.7393 133.912 49.4938 133.63 49.5887L133.621 49.5887Z" fill="#427F85"/>
<path d="M174.011 37.559L171.492 38.2417C168.974 38.9245 167.462 41.5423 168.145 44.0609L170.288 52.0023C170.556 53.0132 171.604 53.611 172.614 53.3344L180.633 51.1738C181.644 50.9058 182.242 49.8587 181.974 48.8478L179.839 40.9063C179.156 38.3877 176.547 36.8762 174.02 37.559L174.011 37.559ZM181.323 49.0207C181.495 49.6803 181.111 50.3584 180.452 50.5313L172.433 52.6919C171.773 52.8648 171.095 52.4806 170.922 51.8209L170.758 51.2127L180.276 48.6458L178.383 41.621L168.865 44.1879L168.779 43.8709C168.191 41.6949 169.489 39.4548 171.657 38.8671L174.175 38.1844C176.351 37.5967 178.591 38.8947 179.179 41.0707L181.314 49.0121L181.323 49.0207ZM176.855 44.4274L177.546 47.006L176.064 47.4036L176.462 48.8857L173.883 49.5771L173.486 48.0951L172.004 48.4926L171.312 45.914L172.794 45.5164L172.397 44.0344L174.975 43.3429L175.373 44.825L176.855 44.4274Z" fill="#427F85"/>
<path d="M174.392 35.1322L174.297 34.7981L174.202 34.464C174.064 33.9586 173.54 33.6597 173.034 33.7894L170.422 34.4895C169.916 34.6278 169.617 35.1513 169.756 35.6568L169.851 35.9909L169.937 36.3336L170.378 37.9527L174.824 36.7514L174.383 35.1322L174.392 35.1322Z" fill="#427F85"/>
<path d="M119.874 66.3686L114.62 74.3264C113.698 75.717 114.087 77.6106 115.487 78.5333L120.998 82.1727C122.389 83.0954 123.539 83.8301 123.556 83.8215C123.564 83.8043 124.67 83.4933 126.006 83.1303C127.342 82.7674 129.22 82.9861 130.182 83.6183C131.143 84.2505 131.856 84.8832 131.762 85.0206C131.668 85.158 131.986 85.5258 132.467 85.8419C132.93 86.1495 134.017 85.3328 134.914 84.0193L135.635 84.4892L136.319 83.4505L137.126 83.9887C137.357 84.1425 137.486 84.2879 137.504 84.425C137.547 84.7164 137.18 85.1629 136.821 85.6009C136.282 86.2536 135.675 86.9921 135.806 87.8661C135.901 88.4745 136.322 89.0222 137.112 89.5434C137.756 89.9705 138.365 90.0892 138.905 89.8908C139.307 89.7442 139.641 89.4263 139.931 88.9971C140.512 88.1129 140.912 86.7148 141.38 85.0765C141.916 83.1981 142.528 81.0623 143.536 79.5429L142.824 79.073C141.747 80.704 141.118 82.9084 140.565 84.8469C139.987 86.8711 139.434 88.7925 138.611 89.0943C138.337 89.1978 138.003 89.1128 137.582 88.8394C137.016 88.4635 136.698 88.0956 136.654 87.7443C136.576 87.2387 137.037 86.6805 137.482 86.1395C137.961 85.5641 138.456 84.963 138.352 84.3032C138.3 83.9175 138.042 83.5752 137.604 83.2848L136.797 82.7465L137.481 81.7078L136.76 81.2293C137.614 79.8817 137.937 78.5609 137.482 78.2619C137.01 77.9457 136.538 77.8011 136.452 77.9384C136.358 78.0758 135.5 77.6662 134.547 77.034C133.586 76.4018 132.648 74.758 132.456 73.387C132.265 72.0159 132.116 70.8761 132.125 70.859C132.134 70.8418 131 70.0814 129.61 69.1587L124.098 65.5192C122.708 64.5965 120.814 64.9864 119.892 66.3771L119.874 66.3686ZM131.312 71.3151C131.355 71.7436 131.451 72.412 131.599 73.4917C131.826 75.1027 132.91 76.969 134.069 77.7379C134.644 78.1138 135.116 78.3871 135.502 78.5663L134.887 79.502C132.16 78.8994 130.909 75.3533 130.909 75.3533C130.909 75.3533 130.235 72.7061 130.267 71.806L128.069 70.3536C128.069 70.3536 127.273 70.7154 126.248 72.2777C125.223 73.8401 125.381 75.5798 124.082 77.5628C122.775 79.5372 120.481 80.8281 120.481 80.8281L115.957 77.8379C114.952 77.1715 114.675 75.8177 115.333 74.8048L120.587 66.847C121.253 65.8426 122.607 65.5654 123.62 66.2232L124.092 66.5393L120.265 72.3424L121.733 73.3163L125.56 67.5132L129.131 69.8712C130.204 70.5718 130.943 71.0759 131.312 71.3322L131.312 71.3151Z" fill="#427F85"/>
<path d="M62.9289 73.1204C64.9833 71.8472 64.6257 69.0278 64.2451 67.5115C64.2013 67.0487 64.0262 65.3861 63.8534 64.7864C63.7411 64.3924 63.2932 63.4076 63.1729 63.2964C63.0527 63.1767 62.9412 63.1512 62.4701 63.3151C62.0075 63.4704 61.8965 63.6593 61.8455 63.8394C61.7944 64.0195 62.1396 65.0474 62.2862 65.4328C62.5016 65.9723 63.2677 67.385 63.4656 67.736C63.7943 69.0725 64.091 71.4549 62.4902 72.4528C60.684 73.5711 54.2856 71.8794 51.0689 70.8578L51.1795 70.4804L47.9628 69.4932L48.6846 66.3886L48.2901 66.2951C48.8056 62.9338 50.1201 56.5362 51.9092 55.4265C53.5099 54.4286 55.5101 55.7615 56.5664 56.642C56.7986 56.9758 57.7187 58.2939 58.114 58.7216C58.3889 59.0296 59.1621 59.7908 59.3422 59.8247C59.5223 59.8586 59.7451 59.8495 60.0872 59.4973C60.4379 59.1536 60.4634 59.0336 60.4116 58.8794C60.3598 58.7166 59.6808 57.8867 59.3716 57.613C58.9164 57.194 57.4915 56.3057 57.1052 56.058C55.9114 55.0405 53.5421 53.4771 51.4962 54.7502C49.2449 56.1524 47.9577 63.27 47.5268 66.1082L47.0293 65.9893L46.2057 69.5228L43.903 70.9594L44.1869 71.4216C43.2796 72.0322 41.6786 72.9187 40.2637 72.6989C39.4749 72.5807 38.8481 72.1363 38.3578 71.3402C36.6631 68.6095 35.4038 65.0978 36.4373 63.4154C36.9754 62.5399 38.1233 62.1687 39.8465 62.3107C41.6727 62.4609 42.7881 62.9471 43.0898 63.7179C43.4002 64.523 42.8026 65.6129 42.3069 66.2826C41.7147 65.9496 40.9689 65.9427 40.3611 66.3212C39.4708 66.8718 39.1906 68.0553 39.7497 68.9456C40.3003 69.8358 41.4838 70.1161 42.3741 69.557C43.2729 68.9978 43.5446 67.8228 42.9855 66.9326C42.9597 66.8898 42.9253 66.847 42.8995 66.8042C43.4379 66.0915 44.3091 64.6753 43.8264 63.4334C43.404 62.3457 42.091 61.7057 39.9134 61.5305C37.8643 61.3636 36.4682 61.8552 35.7678 63.0054C34.4781 65.1084 35.918 68.9112 37.6901 71.7617C38.3009 72.7461 39.1336 73.3272 40.1455 73.4878C41.8176 73.7413 43.5984 72.7773 44.6084 72.0979L44.8063 72.4232L47.0833 71.0124L50.6859 72.1188L50.8391 71.6127C53.4812 72.4641 60.6262 74.5484 62.9117 73.129L62.9289 73.1204ZM41.9697 68.8892C41.4476 69.2161 40.7529 69.0548 40.426 68.524C40.0991 68.0019 40.2604 67.3072 40.7826 66.9889C41.3048 66.6706 41.9995 66.8233 42.3263 67.3455C42.6532 67.8677 42.4919 68.5623 41.9697 68.8892Z" fill="#427F85"/>
<path d="M86.0054 88.996L84.4046 90.0025L81.0833 92.0842L81.8489 93.3083L84.3142 91.7599C84.7945 91.8617 85.3438 92.2034 85.6031 93.1714C86.1677 96.539 84.7097 100.074 81.6452 101.992C77.5792 104.538 72.2018 103.307 69.647 99.2413C67.1007 95.1752 68.3318 89.7893 72.3978 87.2431L75.0583 88.6773L76.3389 86.3L80.0635 88.3062L81.5831 85.4913L77.8584 83.4765L75.9035 79.3577L72.6595 77.6077L71.3789 79.9849L67.6543 77.9787L66.1347 80.7937L69.8593 82.7998L68.5788 85.1771L70.5441 86.2357C66.2911 89.5195 65.1387 95.5824 68.0463 100.239C70.9022 104.802 76.6918 106.426 81.453 104.23L83.7412 107.876L81.6097 109.21L82.0092 111.583L90.1242 106.499L88.1582 105.107L86.0267 106.44L83.7385 102.793C86.8531 100.241 88.1984 96.1659 87.3585 92.3447C87.2455 91.6249 87.1311 90.2536 87.7725 89.575L89.5701 88.4481L88.8045 87.2155L85.9882 88.9789L86.0054 88.996Z" fill="#427F85"/>
<path d="M132.705 11.1972C132.147 10.7869 131.359 10.9001 130.94 11.4668C130.53 12.0249 130.643 12.8132 131.21 13.232C131.768 13.6422 132.556 13.529 132.975 12.9624C133.385 12.4043 133.272 11.6159 132.705 11.1972Z" fill="#427F85"/>
<path d="M136.955 14.325C136.397 13.9148 135.6 14.028 135.19 14.5947C134.78 15.1527 134.893 15.9497 135.459 16.3599C136.018 16.7701 136.806 16.6569 137.225 16.0903C137.635 15.5322 137.522 14.7438 136.955 14.325Z" fill="#427F85"/>
<path d="M133.369 12.9272L135.103 14.2006C135.206 14.0975 135.317 14.0201 135.437 13.9513L133.505 12.524C133.48 12.6612 133.429 12.7899 133.369 12.9187L133.369 12.9272Z" fill="#427F85"/>
<path d="M139.523 12.6136L137.914 13.7915L136.652 12.8599L138.328 11.1676L138.938 11.6205C138.886 11.4921 138.834 11.355 138.791 11.218L138.491 10.9958L138.687 10.7982C138.67 10.7039 138.653 10.6011 138.644 10.4983L138.302 10.8505L136.748 9.70525L138.278 7.62747L139.025 8.16585C139.084 8.04572 139.144 7.92558 139.212 7.80542L133.889 3.94265L134.442 1.79844L133.111 0.815608C133.187 0.566853 133.11 0.28415 132.886 0.121776C132.603 -0.0833253 132.209 -0.0224523 132.004 0.252302C131.799 0.535628 131.86 0.929803 132.134 1.13492C132.358 1.2973 132.649 1.28808 132.872 1.1333L133.979 1.95376L131.999 9.64715L129.926 10.3803L130.845 11.0641C130.947 10.961 131.059 10.8836 131.179 10.8147L130.766 10.5156L132.12 10.0326L137.889 14.2801L139.764 12.9131C139.669 12.8104 139.583 12.7163 139.497 12.6051L139.523 12.6136ZM133.787 4.37147L136.08 6.02937L134.902 8.34639L133.107 7.02169L133.787 4.37147ZM132.41 9.73196L133.039 7.27043L134.791 8.56093L133.707 10.6892L132.402 9.73198L132.41 9.73196ZM135.021 11.6463L133.913 10.8344L134.988 8.70622L136.405 9.74887L135.012 11.6463L135.021 11.6463ZM136.559 9.55995L135.108 8.49165L136.286 6.17463L138.097 7.48214L136.567 9.55993L136.559 9.55995ZM135.218 11.7916L136.611 9.89414L138.139 11.0137L136.463 12.7061L135.218 11.7916Z" fill="#427F85"/>
<path d="M145.135 7.67237C143.855 6.41512 141.807 6.42821 140.541 7.70822C139.284 8.98821 139.297 11.0369 140.577 12.2941C141.857 13.5514 143.905 13.5383 145.171 12.2583C146.428 10.9869 146.415 8.92962 145.135 7.67237ZM143.996 12.038L143.095 11.3714L142.428 12.2729L140.848 11.1106L141.515 10.2091L140.613 9.54245L141.776 7.96265L142.677 8.62927L143.344 7.72775L144.924 8.89005L144.257 9.80014L145.159 10.4668L143.996 12.0466L143.996 12.038Z" fill="#427F85"/>
<defs>
<linearGradient id="paint0_linear_59_1441" x1="223.137" y1="183.126" x2="169.601" y2="236.899" gradientUnits="userSpaceOnUse">
<stop stop-color="white"/>
<stop offset="0.73" stop-color="#949494"/>
<stop offset="0.86" stop-color="#959595"/>
<stop offset="0.91" stop-color="#9D9D9D"/>
<stop offset="0.94" stop-color="#A9A9A9"/>
<stop offset="0.98" stop-color="#BABABA"/>
<stop offset="1" stop-color="#CFCFCF"/>
</linearGradient>
<linearGradient id="paint1_linear_59_1441" x1="180.668" y1="142.9" x2="127.598" y2="196.205" gradientUnits="userSpaceOnUse">
<stop stop-color="#3D535E"/>
<stop offset="0.03" stop-color="#455A64"/>
<stop offset="0.18" stop-color="#697981"/>
<stop offset="0.33" stop-color="#839096"/>
<stop offset="0.46" stop-color="#939EA3"/>
<stop offset="0.56" stop-color="#99A3A8"/>
<stop offset="0.64" stop-color="#939EA3"/>
<stop offset="0.74" stop-color="#849197"/>
<stop offset="0.85" stop-color="#6C7B83"/>
<stop offset="0.96" stop-color="#495E68"/>
<stop offset="1" stop-color="#3D535E"/>
</linearGradient>
<linearGradient id="paint2_linear_59_1441" x1="158.183" y1="171.523" x2="152.321" y2="165.687" gradientUnits="userSpaceOnUse">
<stop stop-color="#BABABA"/>
<stop offset="1" stop-color="white"/>
</linearGradient>
<linearGradient id="paint3_linear_59_1441" x1="203.614" y1="199.48" x2="221.31" y2="181.706" gradientUnits="userSpaceOnUse">
<stop stop-color="#080808"/>
<stop offset="1" stop-color="#292929"/>
</linearGradient>
<linearGradient id="paint4_linear_59_1441" x1="25.3799" y1="190.669" x2="79.1584" y2="244.21" gradientUnits="userSpaceOnUse">
<stop stop-color="white"/>
<stop offset="0.73" stop-color="#80A3A8"/>
<stop offset="0.86" stop-color="#81A4A9"/>
<stop offset="0.91" stop-color="#86ABB1"/>
<stop offset="0.94" stop-color="#90B6BD"/>
<stop offset="0.98" stop-color="#9DC6CE"/>
<stop offset="1" stop-color="#ADDAE3"/>
</linearGradient>
<radialGradient id="paint5_radial_59_1441" cx="0" cy="0" r="1" gradientUnits="userSpaceOnUse" gradientTransform="translate(94.6445 176.529) rotate(44.8736) scale(38.6293)">
<stop stop-color="#72969A"/>
<stop offset="1" stop-color="#4E7373"/>
</radialGradient>
<linearGradient id="paint6_linear_59_1441" x1="90.5001" y1="178.572" x2="96.4935" y2="172.552" gradientUnits="userSpaceOnUse">
<stop stop-color="#9DC7CE"/>
<stop offset="1" stop-color="white"/>
</linearGradient>
<linearGradient id="paint7_linear_59_1441" x1="44.9757" y1="206.936" x2="27.2075" y2="189.246" gradientUnits="userSpaceOnUse">
<stop stop-color="#080808"/>
<stop offset="1" stop-color="#2F3B3D"/>
</linearGradient>
<linearGradient id="paint8_linear_59_1441" x1="62.0089" y1="152.432" x2="117.245" y2="207.425" gradientUnits="userSpaceOnUse">
<stop stop-color="white"/>
<stop offset="0.73" stop-color="#80A3A8"/>
<stop offset="0.86" stop-color="#81A4A9"/>
<stop offset="0.91" stop-color="#86ABB1"/>
<stop offset="0.94" stop-color="#90B6BD"/>
<stop offset="0.98" stop-color="#9DC6CE"/>
<stop offset="1" stop-color="#ADDAE3"/>
</linearGradient>
</defs>
</svg>
