<svg width="23" height="22" viewBox="0 0 23 22" fill="none" xmlns="http://www.w3.org/2000/svg">
<path d="M6.71281 5.98379H5.2496C3.69428 5.98379 2.91726 5.98379 2.36408 6.3011C1.87864 6.57955 1.50549 7.01939 1.31063 7.544C1.08872 8.14145 1.21645 8.90784 1.47183 10.4401L1.47236 10.443L2.58933 17.1448C2.77881 18.2816 2.87417 18.8503 3.15783 19.2769C3.40788 19.6529 3.75888 19.9502 4.17089 20.135C4.63829 20.3447 5.21432 20.3448 6.36687 20.3448H16.633C17.7856 20.3448 18.3612 20.3447 18.8286 20.135C19.2407 19.9502 19.5919 19.6529 19.842 19.2769C20.1256 18.8503 20.2205 18.2816 20.41 17.1448L21.5269 10.443L21.528 10.4383C21.7832 8.90724 21.9109 8.14122 21.689 7.544C21.4942 7.01939 21.1219 6.57955 20.6365 6.3011C20.0833 5.98379 19.305 5.98379 17.7497 5.98379H16.2868M6.71281 5.98379H16.2868M6.71281 5.98379C6.71281 3.34001 8.85602 1.1968 11.4998 1.1968C14.1436 1.1968 16.2868 3.34001 16.2868 5.98379" stroke="white" stroke-width="2.35" stroke-linecap="round" stroke-linejoin="round"/>
</svg>
